<?xml version="1.0" encoding="utf-8"?>
<!-- Generator: Adobe Illustrator 21.1.0, SVG Export Plug-In . SVG Version: 6.00 Build 0)  -->
<svg version="1.1" id="Layer_1" xmlns="http://www.w3.org/2000/svg" xmlns:xlink="http://www.w3.org/1999/xlink" x="0px" y="0px"
	 viewBox="0 0 400 398.1" style="enable-background:new 0 0 400 398.1;" xml:space="preserve">
<style type="text/css">
	.st0{fill:#FFFFFF;}
</style>
<path class="st0" d="M367.2,2H32.8C15.8,2,2,15.8,2,32.8v334.5c0,17,13.8,30.8,30.8,30.8h170.1h78.6h85.8c17,0,30.8-13.8,30.8-30.8
	V32.8C398,15.8,384.2,2,367.2,2z M223,378V232h-49v-36h49v-52.2c0-20.6,5.9-37.4,17.2-48.6C251,84.5,267,78.8,286.1,78.8
	c13.4,0,24.9,0.7,33.9,1.3v31.7h-20.5c-38.1,0-38.5,28.3-38.5,37.6V196h55.2l-4.7,36H261v146H223z M378,367.2
	c0,5.9-4.8,10.8-10.8,10.8H281V252h48.1l9.9-76h-58v-26.6c0-6.9,1.1-11.2,3.1-13.5c2.3-2.7,7.7-4.1,15.6-4.1h40.4V62.3l-8.9-1.2
	c-4.5-0.6-22.7-2.3-45.2-2.3c-24.4,0-45.1,7.7-59.7,22.2C211,96,203,117.7,203,143.8V176h-49v76h49v126H32.8
	c-5.9,0-10.8-4.8-10.8-10.8V32.8c0-6,4.8-10.8,10.8-10.8h334.5c5.9,0,10.8,4.8,10.8,10.8L378,367.2L378,367.2z"/>
</svg>
