<?xml version="1.0" encoding="utf-8"?>
<!-- Generator: Adobe Illustrator 21.1.0, SVG Export Plug-In . SVG Version: 6.00 Build 0)  -->
<svg version="1.1" id="Layer_1" xmlns="http://www.w3.org/2000/svg" xmlns:xlink="http://www.w3.org/1999/xlink" x="0px" y="0px"
	 viewBox="0 0 76 76.1" style="enable-background:new 0 0 76 76.1;" xml:space="preserve">
<style type="text/css">
	.st0{fill:#0892D0;}
</style>
<g>
	<path class="st0" d="M66,20.1h-8c-1.1,0-2-0.9-2-2v-8c0-1.1,0.9-2,2-2h8c1.1,0,2,0.9,2,2v8C68,19.2,67.1,20.1,66,20.1z M60,16.1h4
		v-4h-4V16.1z"/>
	<path class="st0" d="M68,0.1H8c-4.4,0-8,3.6-8,8v60c0,4.4,3.6,8,8,8h60c4.4,0,8-3.6,8-8v-60C76,3.7,72.4,0.1,68,0.1z M8,4.1h60
		c2.2,0,4,1.8,4,4v16H55.9c-4.4-4.9-10.8-8-17.9-8s-13.5,3.1-17.9,8H4v-16C4,5.9,5.8,4.1,8,4.1z M38,20.1c11,0,20,9,20,20
		s-9,20-20,20s-20-9-20-20S27,20.1,38,20.1z M68,72.1H8c-2.2,0-4-1.8-4-4v-40h13.2c-2,3.5-3.2,7.6-3.2,12c0,13.2,10.8,24,24,24
		s24-10.8,24-24c0-4.4-1.2-8.5-3.2-12H72v40C72,70.3,70.2,72.1,68,72.1z"/>
	<path class="st0" d="M38,56.1c-8.8,0-16-7.2-16-16s7.2-16,16-16s16,7.2,16,16S46.8,56.1,38,56.1z M38,28.1c-6.6,0-12,5.4-12,12
		s5.4,12,12,12s12-5.4,12-12S44.6,28.1,38,28.1z"/>
</g>
</svg>
