<?xml version="1.0" encoding="utf-8"?>
<!-- Generator: Adobe Illustrator 21.1.0, SVG Export Plug-In . SVG Version: 6.00 Build 0)  -->
<svg version="1.1" id="Layer_1" xmlns="http://www.w3.org/2000/svg" xmlns:xlink="http://www.w3.org/1999/xlink" x="0px" y="0px"
	 viewBox="0 0 76.2 76" style="enable-background:new 0 0 76.2 76;" xml:space="preserve">
<style type="text/css">
	.st0{fill:#FFFFFF;}
</style>
<g>
	<path class="st0" d="M66,20h-8c-1.1,0-2-0.9-2-2v-8c0-1.1,0.9-2,2-2h8c1.1,0,2,0.9,2,2v8C68,19.1,67.1,20,66,20z M60,16h4v-4h-4V16
		z"/>
	<path class="st0" d="M68,0H8C3.6,0,0,3.6,0,8v60c0,4.4,3.6,8,8,8h60c4.4,0,8-3.6,8-8V8C76,3.6,72.4,0,68,0z M8,4h60
		c2.2,0,4,1.8,4,4v16H55.9c-4.4-4.9-10.8-8-17.9-8s-13.5,3.1-17.9,8H4V8C4,5.8,5.8,4,8,4z M38,20c11,0,20,9,20,20s-9,20-20,20
		s-20-9-20-20S27,20,38,20z M68,72H8c-2.2,0-4-1.8-4-4V28h13.2c-2,3.5-3.2,7.6-3.2,12c0,13.2,10.8,24,24,24s24-10.8,24-24
		c0-4.4-1.2-8.5-3.2-12H72v40C72,70.2,70.2,72,68,72z"/>
	<path class="st0" d="M38,56c-8.8,0-16-7.2-16-16s7.2-16,16-16s16,7.2,16,16S46.8,56,38,56z M38,28c-6.6,0-12,5.4-12,12
		s5.4,12,12,12s12-5.4,12-12S44.6,28,38,28z"/>
</g>
</svg>
