<svg id="Layer_1" data-name="Layer 1" xmlns="http://www.w3.org/2000/svg" viewBox="0 0 174.74 136.6"><defs><style>.cls-1{fill:#0892d0;}</style></defs><title>logo-blue</title><path class="cls-1" d="M11,99.85V13.18l-10.91-2V0H47.71Q64,0,73.5,3.77T86.9,14.64q4,7.11,4,18,0,12.5-5.27,21.41A34.16,34.16,0,0,1,70.24,67.72q-10.07,4.73-24.06,4.73H39.73a22,22,0,0,1-4-.22V99.77l19.41,1.9v9.81H-.41v-9.81ZM59.95,55.74Q65.29,49,65.29,33.07q0-12.2-5-17.87t-15-5.67a29.79,29.79,0,0,0-7.47.84q-.81.21-2.12.42v51a52.39,52.39,0,0,0,10,.72A17.21,17.21,0,0,0,59.95,55.74Z" transform="translate(0.41 -0.02)"/><path class="cls-1" d="M103.54,136.62V34.54h11.33a5.54,5.54,0,0,1,3.07.83,3.86,3.86,0,0,1,1.65,2.55l1.5,7.13a38.86,38.86,0,0,1,10.69-8.62,29,29,0,0,1,14.14-3.3,25.24,25.24,0,0,1,11.51,2.63,25.86,25.86,0,0,1,9,7.61,36.57,36.57,0,0,1,5.85,12.3,61.91,61.91,0,0,1,2.06,16.76,52.73,52.73,0,0,1-2.33,16,39.09,39.09,0,0,1-6.64,12.75,30.67,30.67,0,0,1-10.42,8.44,30.34,30.34,0,0,1-13.69,3,27.54,27.54,0,0,1-11.06-2,27,27,0,0,1-8.14-5.51v31.5Zm36-88.87a18.93,18.93,0,0,0-9.86,2.44A28.52,28.52,0,0,0,122.06,57v34.5A17.62,17.62,0,0,0,128.92,97a20.66,20.66,0,0,0,8,1.54,18,18,0,0,0,7.61-1.57,14.78,14.78,0,0,0,5.77-4.8A23.75,23.75,0,0,0,153.94,84a46.51,46.51,0,0,0,1.28-11.59A51.46,51.46,0,0,0,154.12,61,22.1,22.1,0,0,0,151,53.37a12.3,12.3,0,0,0-4.91-4.27A15.32,15.32,0,0,0,139.54,47.74Z" transform="translate(0.41 -0.02)"/></svg>