<?xml version="1.0" encoding="UTF-8"?>
<svg xmlns="http://www.w3.org/2000/svg" xmlns:xlink="http://www.w3.org/1999/xlink" viewBox="0 0 30 30" width="30px" height="30px">
<g id="surface3968814">
<rect x="0" y="0" width="30" height="30" style="fill:rgb(0%,0%,0%);fill-opacity:1;stroke:none;"/>
<path style=" stroke:none;fill-rule:nonzero;fill:rgb(100%,100%,100%);fill-opacity:1;" d="M 15 4 C 11.636719 4 7.054688 4.054688 6.128906 4.136719 C 5.082031 4.753906 3.019531 6.898438 3 7.523438 L 3 8.550781 C 3 9.855469 4.21875 11 5.324219 11 C 6.652344 11 7.761719 9.898438 7.761719 8.59375 C 7.761719 9.898438 8.828125 11 10.15625 11 C 11.488281 11 12.523438 9.898438 12.523438 8.59375 C 12.523438 9.898438 13.660156 11 14.988281 11 L 15.015625 11 C 16.34375 11 17.480469 9.898438 17.480469 8.59375 C 17.480469 9.898438 18.515625 11 19.84375 11 C 21.171875 11 22.242188 9.898438 22.242188 8.59375 C 22.242188 9.898438 23.347656 11 24.675781 11 C 25.78125 11 27 9.855469 27 8.550781 L 27 7.523438 C 26.980469 6.902344 24.917969 4.753906 23.871094 4.136719 C 20.617188 4.019531 18.363281 4 15 4 Z M 12.484375 11.636719 C 12.355469 11.859375 12.199219 12.058594 12.015625 12.238281 C 11.511719 12.726562 10.828125 13.035156 10.066406 13.035156 C 9.339844 13.035156 8.636719 12.75 8.117188 12.238281 C 7.933594 12.058594 7.796875 11.871094 7.671875 11.648438 C 7.546875 11.871094 7.367188 12.058594 7.183594 12.238281 C 6.664062 12.75 5.964844 13.035156 5.234375 13.035156 C 5.144531 13.035156 5.050781 13.007812 4.972656 12.980469 C 4.867188 14.09375 4.84375 14.542969 4.824219 15.316406 L 4.824219 15.320312 C 4.824219 15.714844 4.824219 16.039062 4.820312 16.488281 C 4.839844 18.824219 4.589844 24.054688 5.847656 25.339844 C 7.800781 25.792969 11.394531 26 15 26 C 18.605469 26 22.199219 25.789062 24.152344 25.335938 C 25.410156 24.050781 25.160156 18.820312 25.179688 16.488281 C 25.175781 16.035156 25.175781 15.714844 25.171875 15.320312 L 25.171875 15.316406 C 25.15625 14.542969 25.089844 14.09375 24.984375 12.980469 C 24.90625 13.007812 24.8125 13.03125 24.71875 13.03125 C 23.992188 13.03125 23.289062 12.75 22.769531 12.238281 C 22.585938 12.058594 22.414062 11.871094 22.285156 11.648438 L 22.28125 11.648438 C 22.15625 11.871094 22.019531 12.058594 21.835938 12.238281 C 21.316406 12.75 20.617188 13.03125 19.886719 13.03125 C 19.128906 13.03125 18.441406 12.730469 17.9375 12.238281 C 17.757812 12.058594 17.601562 11.859375 17.472656 11.636719 C 17.347656 11.859375 17.191406 12.058594 17.007812 12.238281 C 16.488281 12.75 15.789062 13.03125 15.058594 13.03125 C 15.03125 13.03125 15.003906 13.03125 14.976562 13.03125 C 14.953125 13.03125 14.925781 13.03125 14.898438 13.03125 C 14.167969 13.035156 13.46875 12.75 12.949219 12.238281 C 12.765625 12.058594 12.609375 11.859375 12.484375 11.636719 Z M 10.964844 14.644531 L 10.964844 14.648438 C 11.679688 14.648438 12.3125 14.648438 13.09375 15.503906 C 13.710938 15.4375 14.355469 15.402344 15 15.40625 L 15.003906 15.40625 C 15.644531 15.402344 16.289062 15.4375 16.90625 15.503906 C 17.691406 14.648438 18.320312 14.648438 19.035156 14.648438 L 19.035156 14.644531 C 19.371094 14.644531 20.71875 14.644531 21.65625 17.277344 L 22.660156 20.890625 C 23.40625 23.578125 22.421875 23.640625 21.191406 23.644531 C 19.371094 23.578125 18.363281 22.253906 18.363281 20.929688 C 17.355469 21.097656 16.179688 21.179688 15.003906 21.179688 C 13.824219 21.179688 12.648438 21.097656 11.640625 20.929688 C 11.640625 22.253906 10.628906 23.578125 8.808594 23.644531 C 7.578125 23.640625 6.59375 23.578125 7.339844 20.890625 L 8.347656 17.277344 C 9.285156 14.644531 10.628906 14.644531 10.96875 14.644531 Z M 15 16.632812 C 15 16.636719 13.375 18.125 13.082031 18.65625 L 14.144531 18.613281 L 14.144531 19.539062 C 14.144531 19.582031 14.574219 19.566406 15 19.546875 C 15.425781 19.566406 15.855469 19.582031 15.855469 19.539062 L 15.855469 18.613281 L 16.917969 18.65625 C 16.625 18.125 15 16.632812 15 16.632812 Z M 15 16.632812 "/>
</g>
</svg>
