<?xml version="1.0" encoding="UTF-8" standalone="no"?>
<!DOCTYPE svg PUBLIC "-//W3C//DTD SVG 1.1//EN" "http://www.w3.org/Graphics/SVG/1.1/DTD/svg11.dtd">
<svg width="100%" height="100%" viewBox="0 0 431 205" version="1.1" xmlns="http://www.w3.org/2000/svg" xmlns:xlink="http://www.w3.org/1999/xlink" xml:space="preserve" xmlns:serif="http://www.serif.com/" style="fill-rule:evenodd;clip-rule:evenodd;stroke-linejoin:round;stroke-miterlimit:2;">
    <g transform="matrix(1,0,0,1,-428.771,-156.596)">
        <g transform="matrix(283.002,0,0,283.002,410.376,357.81)">
            <path d="M0.065,-0.346C0.065,-0.128 0.148,0.01 0.335,0.01C0.429,0.01 0.488,-0.014 0.519,-0.043L0.485,-0.086C0.459,-0.062 0.418,-0.047 0.345,-0.047C0.203,-0.047 0.127,-0.15 0.127,-0.352C0.127,-0.56 0.209,-0.654 0.339,-0.654C0.411,-0.654 0.455,-0.636 0.486,-0.612L0.523,-0.66C0.499,-0.68 0.444,-0.711 0.346,-0.711C0.164,-0.711 0.065,-0.578 0.065,-0.346Z" style="fill:white;fill-rule:nonzero;"/>
        </g>
        <g transform="matrix(241.821,0,0,241.821,573.742,357.81)">
            <path d="M0.158,-0.627L0.098,-0.627L0.098,-0L0.158,-0L0.158,-0.627ZM0.191,-0.225L0.191,-0.221L0.344,0.012L0.422,0.012L0.262,-0.224L0.399,-0.385L0.328,-0.385L0.191,-0.225Z" style="fill:white;fill-rule:nonzero;"/>
        </g>
        <g transform="matrix(283.002,0,0,283.002,727.904,357.81)">
            <path d="M-0.074,0.01L-0.027,0.01L-0.027,-0.33L-0.074,-0.33L-0.074,0.01ZM-0.084,-0.39C-0.084,-0.371 -0.07,-0.356 -0.051,-0.356C-0.031,-0.356 -0.016,-0.371 -0.016,-0.39C-0.016,-0.409 -0.031,-0.424 -0.051,-0.424C-0.07,-0.424 -0.084,-0.409 -0.084,-0.39Z" style="fill:white;fill-rule:nonzero;"/>
        </g>
        <g transform="matrix(283.002,0,0,283.002,809.126,357.81)">
            <path d="M0.085,-0.162C0.082,-0.281 0.06,-0.34 -0.048,-0.34C-0.14,-0.34 -0.157,-0.285 -0.167,-0.271L-0.171,-0.271L-0.184,-0.33L-0.227,-0.33L-0.228,0.01L-0.174,0.01C-0.174,0.01 -0.176,-0.115 -0.173,-0.153C-0.172,-0.177 -0.161,-0.213 -0.156,-0.221C-0.141,-0.249 -0.13,-0.286 -0.056,-0.286C0.026,-0.286 0.034,-0.237 0.034,-0.148L0.033,0.01L0.086,0.01L0.085,-0.162Z" style="fill:white;fill-rule:nonzero;"/>
        </g>
    </g>
</svg>
