<?xml version="1.0" encoding="UTF-8" standalone="no"?>
<!DOCTYPE svg PUBLIC "-//W3C//DTD SVG 1.1//EN" "http://www.w3.org/Graphics/SVG/1.1/DTD/svg11.dtd">
<svg width="100%" height="100%" viewBox="0 0 431 205" version="1.1" xmlns="http://www.w3.org/2000/svg" xmlns:xlink="http://www.w3.org/1999/xlink" xml:space="preserve" xmlns:serif="http://www.serif.com/" style="fill-rule:evenodd;clip-rule:evenodd;stroke-linejoin:round;stroke-miterlimit:2;">
    <g transform="matrix(1,0,0,1,-428.771,-156.596)">
        <g transform="matrix(283.002,0,0,283.002,410.376,357.81)">
            <path d="M0.065,-0.346C0.065,-0.128 0.148,0.01 0.335,0.01C0.429,0.01 0.488,-0.014 0.519,-0.043L0.485,-0.086C0.459,-0.062 0.418,-0.047 0.345,-0.047C0.203,-0.047 0.127,-0.15 0.127,-0.352C0.127,-0.56 0.209,-0.654 0.339,-0.654C0.411,-0.654 0.455,-0.636 0.486,-0.612L0.523,-0.66C0.499,-0.68 0.444,-0.711 0.346,-0.711C0.164,-0.711 0.065,-0.578 0.065,-0.346Z" style="fill:white;fill-rule:nonzero;"/>
        </g>
        <g transform="matrix(241.821,0,0,241.821,573.742,357.81)">
            <path d="M0.158,-0.701L0.098,-0.701L0.098,-0L0.158,-0L0.158,-0.701ZM0.19,-0.349L0.19,-0.345L0.463,-0L0.541,-0L0.261,-0.348L0.518,-0.701L0.447,-0.701L0.19,-0.349Z" style="fill:white;fill-rule:nonzero;"/>
        </g>
        <g transform="matrix(283.002,0,0,283.002,727.904,357.81)">
            <path d="M0.017,0L0.064,0L0.064,-0.34L0.017,-0.34L0.017,0ZM0.007,-0.4C0.007,-0.381 0.022,-0.366 0.041,-0.366C0.06,-0.366 0.075,-0.381 0.075,-0.4C0.075,-0.419 0.06,-0.434 0.041,-0.434C0.022,-0.434 0.007,-0.419 0.007,-0.4Z" style="fill:white;fill-rule:nonzero;"/>
        </g>
        <g transform="matrix(283.002,0,0,283.002,809.126,357.81)">
            <path d="M0.176,-0.172C0.173,-0.291 0.151,-0.35 0.043,-0.35C-0.049,-0.35 -0.066,-0.295 -0.076,-0.281L-0.08,-0.281L-0.093,-0.34L-0.136,-0.34L-0.137,0L-0.082,0C-0.082,0 -0.085,-0.125 -0.082,-0.163C-0.08,-0.187 -0.069,-0.223 -0.065,-0.231C-0.05,-0.259 -0.039,-0.296 0.035,-0.296C0.117,-0.296 0.125,-0.247 0.125,-0.158L0.124,0L0.177,0L0.176,-0.172Z" style="fill:white;fill-rule:nonzero;"/>
        </g>
    </g>
</svg>
